<svg width="1440" height="736" viewBox="0 0 1440 736" fill="none" xmlns="http://www.w3.org/2000/svg">
<path fill-rule="evenodd" clip-rule="evenodd" d="M1440 512.906H1311.11V727.906H1440V736H0V727.487H41.9648V653.742C42.9858 653.946 44.6193 654.15 46.8652 654.354C49.3156 654.557 51.7664 654.762 54.2168 654.966H66.1631C76.7819 654.966 86.9929 653.64 96.7949 650.988C106.801 648.336 115.684 644.052 123.443 638.136C131.203 632.22 137.432 624.672 142.129 615.492C146.826 606.108 149.174 594.684 149.174 581.221C149.174 566.329 146.417 554.292 140.903 545.112C135.594 535.728 128.651 528.487 120.074 523.387C111.497 518.083 101.798 514.614 90.9746 512.982C80.3558 511.146 69.737 510.229 59.1182 510.229C48.9078 510.229 38.5953 510.739 28.1807 511.759C17.9703 512.575 8.57672 513.799 0 515.431V0H1440V512.906ZM1202.94 509C1192.12 509 1182.32 510.224 1173.53 512.672C1164.75 515.12 1157.1 518.894 1150.56 523.994C1144.23 529.094 1139.33 535.52 1135.86 543.271C1132.39 550.819 1130.65 559.796 1130.65 570.2C1130.65 582.236 1133 592.13 1137.7 599.882C1142.6 607.634 1148.62 614.162 1155.77 619.466C1163.12 624.566 1170.98 628.951 1179.35 632.623C1187.93 636.091 1195.79 639.559 1202.94 643.027C1210.29 646.291 1216.32 649.963 1221.01 654.043C1225.91 658.123 1228.36 663.427 1228.36 669.955C1228.36 678.523 1224.99 684.949 1218.26 689.233C1211.72 693.313 1202.23 695.353 1189.77 695.354C1184.46 695.354 1179.25 694.945 1174.15 694.129C1169.25 693.313 1164.55 692.293 1160.06 691.069C1155.56 689.845 1151.48 688.52 1147.8 687.092C1144.33 685.664 1141.47 684.337 1139.23 683.113L1125.75 718.915C1131.26 721.771 1139.84 724.627 1151.48 727.483C1163.12 730.339 1176.6 731.768 1191.91 731.768C1203.55 731.768 1214.17 730.441 1223.77 727.789C1233.57 725.137 1241.84 721.057 1248.58 715.549C1255.52 710.041 1260.83 703.207 1264.51 695.047C1268.39 686.683 1270.33 676.789 1270.33 665.365C1270.33 653.941 1267.88 644.455 1262.98 636.907C1258.28 629.155 1252.26 622.73 1244.91 617.63C1237.76 612.326 1229.9 607.838 1221.32 604.166C1212.95 600.494 1205.08 596.924 1197.73 593.456C1190.59 589.988 1184.56 586.214 1179.66 582.134C1174.96 578.054 1172.62 572.954 1172.62 566.834C1172.62 560.306 1175.17 555.104 1180.27 551.228C1185.58 547.352 1193.14 545.414 1202.94 545.414C1213.35 545.414 1223.05 546.638 1232.04 549.086C1241.03 551.33 1247.76 553.879 1252.26 556.735L1265.43 521.546C1258.28 517.466 1249.19 514.406 1238.17 512.366C1227.14 510.122 1215.4 509 1202.94 509ZM146.452 727.487H188.417L204.651 680.058H270.508L287.662 727.487H331.771L254.58 511.758H223.643L146.452 727.487ZM424.726 510.229C420.437 510.229 415.741 510.33 410.636 510.534C405.531 510.738 400.221 511.044 394.707 511.452C389.398 511.86 383.986 512.472 378.473 513.288C373.163 513.9 368.161 514.615 363.464 515.431V727.487H405.428V639.666L427.482 643.644L476.187 727.487H524.583L475.573 645.786L460.564 636.3C474.246 632.016 485.172 624.366 493.34 613.351C501.508 602.335 505.592 588.054 505.592 570.511C505.592 558.679 503.244 548.887 498.547 541.135C494.054 533.179 487.928 526.957 480.168 522.469C472.612 517.981 463.934 514.818 454.132 512.982C444.534 511.146 434.732 510.229 424.726 510.229ZM918.848 727.487H960.812L977.047 680.058H1042.9L1060.06 727.487H1104.17L1026.98 511.758H996.038L918.848 727.487ZM560.899 727.484H602.864V635.99H613.892L677.298 727.484H729.064L657.694 626.811L640.54 614.877L657.081 603.249L719.569 513.285H671.784L612.666 603.86L602.864 608.145V513.285H560.899V727.484ZM764.02 727.484H892.67V690.152H805.984V637.827H883.48V600.495H805.984V550.617H891.139V513.285H764.02V727.484ZM1440 690.435H1355.8V637.913H1438.32V600.442H1355.8V550.378H1440V690.435ZM245.391 598.661L261.319 646.397H215.372L230.994 598.968L237.427 565.002H238.958L245.391 598.661ZM1017.79 598.661L1033.71 646.397H987.768L1003.39 598.968L1009.82 565.002H1011.35L1017.79 598.661ZM62.4873 546.336C67.7967 546.336 73.0042 546.846 78.1094 547.866C83.2144 548.886 87.707 550.722 91.5869 553.374C95.671 556.026 98.9392 559.596 101.39 564.084C103.84 568.368 105.065 573.876 105.065 580.608C105.065 588.564 103.738 594.99 101.083 599.886C98.6326 604.782 95.2629 608.658 90.9746 611.514C86.6862 614.166 81.7851 616.002 76.2715 617.022C70.9622 618.042 65.5506 618.552 60.0371 618.552H50.8477C49.0099 618.348 47.2742 618.144 45.6406 617.94C44.007 617.736 42.7817 617.532 41.9648 617.328V547.866C44.2111 547.458 47.172 547.152 50.8477 546.948C54.5233 546.54 58.4033 546.336 62.4873 546.336ZM427.789 547.561C438.816 547.561 447.188 550.213 452.906 555.517C458.624 560.617 461.483 567.757 461.483 576.937C461.483 589.176 458.011 597.948 451.068 603.252C444.125 608.556 434.834 611.208 423.194 611.208H405.428V549.091C407.674 548.479 410.84 548.07 414.924 547.866C419.212 547.662 423.501 547.561 427.789 547.561Z" fill="white"/>
</svg>
